<svg width="1351" height="188" viewBox="0 0 1351 188" fill="none" xmlns="http://www.w3.org/2000/svg">
<path d="M1289 8C1302.2 8 1315.4 8 1329 8C1329.06 16.9564 1329.06 16.9564 1329.11 26.0938C1329.14 29.8854 1329.17 33.6771 1329.21 37.4688C1329.26 43.4817 1329.31 49.4947 1329.35 55.5078C1329.37 60.3579 1329.41 65.2078 1329.46 70.0577C1329.48 71.9043 1329.49 73.751 1329.5 75.5977C1329.51 78.1924 1329.54 80.7863 1329.57 83.3809C1329.57 84.1376 1329.56 84.8943 1329.56 85.6739C1329.67 91.9775 1330.76 97.8168 1335.44 102.375C1340.2 104.734 1340.2 104.734 1351 106C1351 119.2 1351 132.4 1351 146C1330.71 146 1315.97 145.277 1301.2 131.34C1296.54 126.387 1292 120.009 1292 113C1291.34 113 1290.68 113 1290 113C1289.81 113.804 1289.63 114.609 1289.44 115.438C1284.09 128.683 1271.78 137.778 1259.06 143.25C1244.66 148.588 1229.09 148.278 1215 142C1201.56 135.399 1192.48 125.372 1186 112C1185.6 112.895 1185.2 113.789 1184.79 114.711C1178.33 128.649 1169.98 138.315 1155.29 144.059C1150.24 145.682 1145.29 146.58 1140 147C1139.04 147.079 1139.04 147.079 1138.07 147.16C1123.62 147.788 1109.37 143.496 1098.19 134.312C1088.63 125.185 1082.39 112.151 1081.88 98.8551C1081.88 97.676 1081.88 96.4969 1081.89 95.282C1081.89 94.6278 1081.89 93.9735 1081.89 93.2995C1081.89 91.1515 1081.89 89.0035 1081.9 86.8555C1081.9 85.3605 1081.91 83.8654 1081.91 82.3704C1081.91 78.4463 1081.92 74.5222 1081.93 70.598C1081.94 65.884 1081.95 61.1699 1081.95 56.4558C1081.96 49.3039 1081.98 42.152 1082 35C1095.2 35 1108.4 35 1122 35C1122.04 39.3338 1122.07 43.6677 1122.11 48.1328C1122.15 51.5979 1122.19 55.0629 1122.24 58.5279C1122.28 62.1803 1122.32 65.8327 1122.35 69.4854C1122.37 73.0063 1122.41 76.5269 1122.46 80.0476C1122.49 82.0383 1122.5 84.0291 1122.51 86.0198C1122.53 87.2406 1122.55 88.4614 1122.57 89.7192C1122.58 91.3247 1122.58 91.3247 1122.6 92.9627C1123.18 97.3486 1124.72 100.739 1127.88 103.852C1131.75 105.947 1135.73 105.485 1140 105C1143.02 104.206 1143.02 104.206 1145 102C1148.49 94.8584 1148.47 88.1632 1148.51 80.3125C1148.54 78.3651 1148.54 78.3651 1148.57 76.3784C1148.61 72.9525 1148.64 69.5267 1148.67 66.1005C1148.7 62.5942 1148.75 59.0882 1148.79 55.582C1148.88 48.7213 1148.94 41.8612 1149 35C1161.87 35 1174.74 35 1188 35C1188.33 43.91 1188.66 52.82 1189 62C1190.42 60.02 1191.85 58.04 1193.31 56C1202.1 44.3176 1214.55 36.6537 1229 34C1245.98 32.2889 1261.04 35.3596 1274.63 46.0703C1280.51 51.0942 1283.46 55.1957 1288 62C1288.33 44.18 1288.66 26.36 1289 8ZM1224.06 81.3125C1221.67 87.3656 1221.37 92.2157 1223.91 98.1719C1226.07 101.795 1229.24 104.118 1233 106C1238.26 106.524 1242.65 106.665 1247.44 104.312C1251.97 100.219 1254.7 97.017 1255.31 90.8125C1254.82 84.862 1252.76 80.6746 1248.44 76.5625C1239.76 70.9968 1230.4 73.7521 1224.06 81.3125Z" fill="white"/>
<path d="M79.3945 0.843753C101.085 0.0632794 121.87 8.40536 138.27 22.3672C153.874 37.4134 163.848 57.6491 164.293 79.4858C164.461 103.814 157.119 124.369 140.125 142.25C123.018 158.528 101.161 165.544 77.9531 165.207C56.2688 164.529 36.2357 154.387 21.3477 138.797C14.422 130.546 8.76218 121.097 5 111C4.60813 109.976 4.21625 108.953 3.8125 107.898C-2.96634 87.0441 -0.159369 64.1495 9.64551 44.8682C19.3114 26.9273 19.3114 26.9273 27 24C27 23.34 27 22.68 27 22C41.2715 9.11934 60.4651 2.07896 79.3945 0.843753Z" fill="#FCCB01"/>
<path d="M500 43C502.958 45.7893 505.67 48.6616 508 52C508 52.66 508 53.32 508 54C508.722 53.2781 509.444 52.5563 510.188 51.8125C511.116 50.8844 512.044 49.9563 513 49C513.743 48.1956 514.485 47.3913 515.25 46.5625C525.51 37.0024 536.863 33.6176 550.719 33.7891C562.765 34.5635 573.962 38.3495 582.375 47.25C592.913 60.1845 593.315 74.4102 593.266 90.4141C593.267 91.9615 593.269 93.509 593.271 95.0565C593.274 98.2719 593.27 101.487 593.261 104.703C593.249 108.827 593.256 112.952 593.268 117.077C593.275 120.26 593.273 123.442 593.268 126.625C593.266 128.147 593.268 129.669 593.273 131.192C593.278 133.307 593.27 135.422 593.259 137.538C593.257 138.741 593.256 139.943 593.254 141.183C593 144 593 144 591 146C588.291 146.199 585.707 146.278 583 146.25C581.894 146.262 581.894 146.262 580.766 146.273C575.253 146.253 575.253 146.253 573 144C572.742 141.163 572.742 141.163 572.729 137.49C572.724 136.821 572.718 136.153 572.713 135.464C572.703 134.009 572.697 132.555 572.695 131.1C572.691 128.791 572.675 126.482 572.654 124.174C572.599 117.608 572.568 111.042 572.544 104.476C572.528 100.46 572.497 96.4446 572.459 92.4288C572.447 90.9039 572.441 89.379 572.441 87.8542C572.44 77.3235 572.397 67.5486 564.781 59.5039C558.235 53.9769 550.347 52.9107 542 53C532.922 53.7993 526.25 58.123 520.324 64.8633C515.184 73.1568 515.527 81.6606 515.488 91.0938C515.471 92.6517 515.453 94.2097 515.434 95.7677C515.387 99.8446 515.357 103.922 515.33 107.999C515.301 112.168 515.254 116.338 515.209 120.508C515.123 128.672 515.056 136.836 515 145C511.826 146.587 508.418 146.143 504.938 146.125C504.192 146.129 503.446 146.133 502.678 146.137C497.127 146.127 497.127 146.127 496 145C495.887 143.1 495.843 141.197 495.826 139.294C495.813 138.071 495.799 136.849 495.786 135.589C495.78 134.931 495.775 134.272 495.77 133.594C495.754 131.528 495.731 129.462 495.705 127.396C495.635 121.52 495.575 115.643 495.523 109.767C495.491 106.173 495.45 102.58 495.403 98.9871C495.38 96.9712 495.366 94.9552 495.353 92.9393C495.178 74.5312 495.178 74.5312 486.188 59.1875C478.388 53.8349 470.513 52.108 461.063 53.4023C452.308 55.4573 446.149 59.76 441.008 67.0938C438.417 71.9944 437.746 76.4874 437.713 81.9834C437.703 82.9894 437.703 82.9894 437.692 84.0157C437.679 85.461 437.67 86.9064 437.664 88.3518C437.656 90.6381 437.636 92.924 437.612 95.2103C437.556 100.882 437.52 106.554 437.484 112.227C437.453 117.032 437.414 121.838 437.364 126.643C437.344 128.898 437.336 131.152 437.328 133.407C437.315 134.783 437.301 136.159 437.287 137.534C437.28 138.737 437.273 139.941 437.265 141.18C437 144 437 144 435 146C432.273 146.172 429.661 146.232 426.938 146.188C426.192 146.187 425.446 146.186 424.678 146.186C419.14 146.14 419.14 146.14 418 145C417.902 143.598 417.874 142.192 417.873 140.786C417.87 139.878 417.867 138.969 417.864 138.033C417.867 137.028 417.869 136.023 417.871 134.988C417.869 133.936 417.867 132.884 417.865 131.801C417.861 128.305 417.864 124.809 417.867 121.312C417.867 118.895 417.866 116.477 417.864 114.06C417.863 108.986 417.865 103.911 417.87 98.8369C417.875 92.3162 417.872 85.7954 417.866 79.2747C417.862 74.2803 417.864 69.286 417.866 64.2916C417.867 61.8865 417.866 59.4814 417.864 57.0763C417.861 53.7214 417.865 50.3666 417.871 47.0117C417.869 46.007 417.867 45.0023 417.864 43.9671C417.869 42.6041 417.869 42.6041 417.873 41.2136C417.873 40.4194 417.874 39.6252 417.874 38.8069C418 37 418 37 419 36C421.677 35.9002 424.323 35.8612 427 35.875C427.75 35.8711 428.5 35.8673 429.273 35.8633C434.873 35.8734 434.873 35.8734 436 37C436.233 38.6818 436.413 40.3712 436.563 42.0625C436.688 43.4412 436.688 43.4412 436.816 44.8477C436.877 45.5579 436.938 46.2682 437 47C437.692 46.4373 437.692 46.4373 438.398 45.8633C456.441 31.707 480.669 29.0551 500 43Z" fill="white"/>
<path d="M698 44C699.168 44.8798 699.168 44.8798 700.359 45.7773C712.017 55.342 717.974 68.6163 719.746 83.3555C720.944 100.555 716.242 115.433 705.313 128.687C695.733 138.976 682.646 144.385 668.707 145.121C656.275 145.449 645.187 142.284 635.184 134.852C634.208 134.13 633.233 133.409 632.228 132.666C631.493 132.117 630.758 131.567 630 131C630.002 131.687 630.004 132.374 630.007 133.081C630.029 140.202 630.044 147.323 630.055 154.444C630.06 157.104 630.067 159.765 630.075 162.426C630.088 166.241 630.093 170.056 630.098 173.871C630.103 175.069 630.108 176.267 630.113 177.501C630.113 179.153 630.113 179.153 630.114 180.838C630.116 181.812 630.118 182.787 630.12 183.792C630 186 630 186 629 187C626.157 187.1 623.343 187.139 620.5 187.125C619.702 187.129 618.904 187.133 618.082 187.137C612.127 187.127 612.127 187.127 611 186C610.901 184.079 610.874 182.154 610.873 180.23C610.87 178.976 610.867 177.723 610.865 176.431C610.866 175.029 610.868 173.627 610.871 172.225C610.869 170.758 610.868 169.292 610.865 167.825C610.861 163.831 610.863 159.838 610.866 155.844C610.868 151.674 610.866 147.504 610.864 143.333C610.863 136.329 610.865 129.324 610.87 122.32C610.875 114.21 610.873 106.1 610.868 97.9902C610.863 91.0399 610.863 84.0896 610.865 77.1393C610.867 72.9827 610.867 68.826 610.864 64.6693C610.861 60.7624 610.863 56.8555 610.869 52.9486C610.87 51.5106 610.87 50.0727 610.867 48.6347C610.865 46.6798 610.869 44.725 610.873 42.7701C610.873 41.6736 610.874 40.577 610.874 39.4472C611 37 611 37 612 36C614.843 35.9001 617.657 35.8612 620.5 35.875C621.298 35.8711 622.096 35.8673 622.918 35.8633C628.873 35.8734 628.873 35.8734 630 37C630.072 38.8529 630.084 40.7083 630.063 42.5625C630.054 43.5744 630.044 44.5863 630.035 45.6289C630.024 46.4114 630.012 47.1938 630 48C631.035 47.2034 631.035 47.2034 632.09 46.3906C651.556 31.7577 677.641 28.6595 698 44ZM636.223 65.1016C629.166 74.8674 627.914 85.1513 629 97C631.022 107.207 635.819 115.221 644.25 121.375C652.806 126.614 662.36 128.391 672.133 126.344C681.862 123.725 688.868 119.764 694.375 111.187C700.115 100.601 701.984 89.4856 698.813 77.6875C695.788 68.9944 690.449 61.0694 682.316 56.4883C677.646 54.2764 673.206 52.347 668 52C666.824 51.8969 665.649 51.7937 664.438 51.6875C653.305 51.9008 643.351 56.6726 636.223 65.1016Z" fill="white"/>
<path d="M149.812 79.1875C156.721 84.7113 158.583 91.0945 159.738 99.6563C160.342 107.376 160.154 112.009 156.5 118.813C155.959 119.852 155.959 119.852 155.406 120.912C145.115 140.19 129.213 154.486 108.203 161.293C85.6114 167.894 62.8474 166.289 42 155C30.3671 148.13 22.9093 141.169 17 129C16.6055 128.194 16.2111 127.389 15.8047 126.559C10.1028 113.74 9.57846 99.6972 14.3789 86.5821C14.5839 86.06 14.7888 85.5379 15 85C16.9593 88.5375 18.0177 92.2017 19.1875 96.0625C24.5126 112.596 35.8493 125.437 51.0664 133.656C62.876 139.454 73.8895 141.579 87 141C86.7113 140.345 86.4225 139.69 86.125 139.016C81.2829 127.112 82.0852 116.813 87 105C94.1549 90.8421 106.056 80.1643 121.125 75.0625C131.003 72.522 141.127 73.6229 149.812 79.1875Z" fill="#FC0223"/>
<path d="M116.746 57.8711C121.099 61.1377 121.099 61.1377 123 63C123 63.66 123 64.32 123 65C123.577 65.2269 124.155 65.4537 124.75 65.6875C127.597 67.3485 129.121 69.3152 131 72C131 72.66 131 73.32 131 74C130.056 74.2075 129.113 74.4151 128.141 74.6289C112.312 78.3322 100.505 85.6683 91.1875 99.25C85.5383 108.67 82.5169 119.005 84 130C85.089 134.107 86.4322 138.052 88 142C69.457 143.043 52.3095 138.223 38.0422 126.02C26.8788 115.925 17.0557 101.438 15.75 86.0547C16.041 82.4989 17.0324 80.4501 18.8125 77.375C19.5956 75.9944 19.5956 75.9944 20.3945 74.5859C21.8326 72.2696 23.2258 70.0707 25 68C25.66 68 26.32 68 27 68C27.66 66.68 28.32 65.36 29 64C29.66 64 30.32 64 31 64C31.33 63.01 31.66 62.02 32 61C35.4741 58.3685 39.2476 56.2109 43 54C43.6652 53.6029 44.3303 53.2059 45.0156 52.7969C67.4781 40.4913 96.0036 43.7379 116.746 57.8711Z" fill="#FC8001"/>
<path d="M813 45C813.144 43.7006 813.289 42.4012 813.438 41.0625C813.875 37.125 813.875 37.125 815 36C817.843 35.9001 820.657 35.8612 823.5 35.875C824.697 35.8692 824.697 35.8692 825.918 35.8633C831.873 35.8734 831.873 35.8734 833 37C833.095 38.4041 833.122 39.813 833.12 41.2203C833.122 42.5855 833.122 42.5855 833.124 43.9782C833.119 45.4876 833.119 45.4876 833.114 47.0276C833.114 48.0811 833.114 49.1346 833.114 50.2201C833.113 53.7209 833.105 57.2218 833.098 60.7226C833.096 63.1426 833.094 65.5625 833.093 67.9825C833.09 74.3661 833.08 80.7497 833.069 87.1333C833.058 93.6416 833.054 100.15 833.049 106.658C833.038 119.439 833.021 132.219 833 145C826.73 145 820.46 145 814 145C813.991 143.023 813.981 141.045 813.972 139.008C813.936 132.442 813.882 125.877 813.816 119.311C813.777 115.334 813.745 111.357 813.729 107.38C813.714 103.535 813.679 99.6899 813.632 95.8449C813.617 94.3851 813.609 92.9253 813.608 91.4654C813.596 81.1952 812.937 72.1741 805.875 64.1875C796.71 55.8666 785.574 53.4991 773.543 53.6797C762.938 54.6385 754.407 59.6688 747.609 67.7148C742.246 75.3306 740.04 84.7909 741 94C743.34 104.924 747.428 113.18 756.66 119.684C763.371 123.459 770.442 124.92 778 126C778 132.27 778 138.54 778 145C772.745 147.627 764.105 144.652 758.758 142.996C743.727 137.081 733.186 127.419 726.477 112.687C720.346 97.378 720.393 81.6728 726.441 66.3476C732.448 53.5132 741.355 42.9334 754.688 37.4961C775.35 30.0398 794.698 32.7985 813 45Z" fill="white"/>
<path d="M930 45C930.495 45.99 930.495 45.99 931 47C929.923 49.2826 928.805 51.4357 927.562 53.625C927.224 54.236 926.886 54.8471 926.537 55.4766C925.699 56.9884 924.85 58.4947 924 60C920.008 59.3433 916.55 58.0966 912.812 56.5625C900.65 51.8395 887.766 49.682 875.098 54.0078C871.351 55.7801 868.841 58.319 867 62C866.642 66.3622 866.441 68.9068 868.438 72.8125C875.774 79.0755 886.972 79.1736 896.143 80.3731C909.24 82.2177 919.296 85.445 928.812 94.75C932.888 100.805 934.782 107.703 934 115C932.192 124.145 928.418 130.831 920.75 136.25C904.366 146.299 885.448 146.677 867 143C858.491 140.818 847.062 137.594 842 130C844.64 125.71 847.28 121.42 850 117C853.429 118.372 856.269 119.675 859.438 121.438C871.745 127.591 887.635 129.331 901 125.762C905.319 124.117 909.716 122.069 912.207 118.055C913.626 114.379 913.606 110.596 912.209 106.916C909.776 103.06 905.194 101.577 900.918 100.453C898.783 100.047 896.653 99.7271 894.5 99.4375C892.916 99.1965 891.333 98.9543 889.75 98.711C888.959 98.5933 888.167 98.4757 887.352 98.3545C859.473 94.1519 859.473 94.1519 850 83C845.253 75.3998 845.047 67.2568 846.367 58.5899C848.351 50.885 853.934 44.958 860.25 40.3633C880.05 29.226 911.794 32.0081 930 45Z" fill="white"/>
<path d="M1020.44 43.8125C1021.28 44.5344 1022.13 45.2562 1023 46C1021.24 50.9721 1018.61 55.4344 1016 60C1012.01 59.3433 1008.55 58.0965 1004.81 56.5625C992.65 51.8395 979.766 49.682 967.098 54.0078C963.351 55.78 960.841 58.319 959 62C958.373 67.8156 958.373 67.8156 961 72.8125C969.004 78.6491 978.55 79.1299 988.094 80.373C1000.86 82.1642 1011.89 85.1613 1020.81 94.875C1025.5 101.578 1026.91 107.853 1026 116C1024.16 125.225 1018.91 132.347 1011.25 137.687C995.793 146.704 976.03 146.58 959 143C950.26 140.52 942.542 137.057 935 132C935.578 127.938 936.891 125.152 939.062 121.687C939.884 120.363 939.884 120.363 940.723 119.012C941.355 118.016 941.355 118.016 942 117C945.822 118.467 949.452 120.195 953.125 122C966.407 128.105 981.349 128.986 995.461 124.992C999.647 123.356 1002.94 121.124 1005 117C1005.64 112.342 1005.73 109.054 1003 105.125C996.167 100.285 989.115 99.4552 981 98.625C965.844 96.83 951.686 94.4597 941.562 82C937.437 74.0786 936.62 65.7869 939.25 57.25C942.699 48.1638 948.537 42.5126 957.125 38.25C975.466 30.4254 1003.83 32.0472 1020.44 43.8125Z" fill="white"/>
<path d="M279 44C281.208 45.9042 283.071 47.8033 285 50C283.464 53.6807 281.218 55.9878 278.375 58.75C277.558 59.5492 276.74 60.3484 275.898 61.1719C275.272 61.7752 274.645 62.3784 274 63C271.29 61.7049 268.852 60.2543 266.375 58.5625C258.056 53.3556 249.104 51.6865 239.465 53.4688C229.071 56.1675 221.268 62.3783 215 71C210.12 79.8002 208.276 89.0944 210.754 99.0195C214.269 109.095 219.977 117.028 229.41 122.363C238.752 126.652 247.633 127.245 257.441 124.062C261.139 122.527 264.43 120.494 267.773 118.305C269.979 117.012 271.476 116.321 274 116C276.29 117.919 278.233 119.763 280.25 121.938C280.804 122.514 281.359 123.091 281.93 123.686C283.298 125.113 284.651 126.555 286 128C283.947 134.159 276.526 137.69 270.988 140.562C255.743 147.258 240.942 147.628 225.371 141.594C209.26 134.095 198.129 121.614 192 105C187.45 90.0703 189.847 74.6379 197.086 61.0156C205.704 47.4383 218.317 37.8879 234 34C250.044 30.9558 265.763 34.4126 279 44Z" fill="white"/>
<path d="M384.723 45.0742C397.479 56.0992 404.798 69.0418 406.254 85.9492C406.827 100.974 402.565 114.722 392.75 126.125C381.706 137.841 368.578 144.479 352.25 145.105C350 145 350 145 349 144C348.927 141.303 348.908 138.633 348.937 135.938C348.942 135.179 348.947 134.42 348.951 133.639C348.963 131.759 348.981 129.88 349 128C352.091 126.687 354.943 125.745 358.25 125.188C369.049 122.884 375.588 116.3 381.668 107.477C386.394 98.69 386.287 87.3801 384.348 77.7657C381.68 69.6593 377.121 62.538 369.687 58.125C357.854 52.3286 347.653 51.4511 335.117 55.6836C326.43 59.3525 320.66 65.3331 317 74C315.332 79.2683 314.19 84.5986 313 90C306.73 90 300.46 90 294 90C293.391 75.9857 297.641 63.0266 306.75 52.1875C326.843 31.1433 361.203 27.1565 384.723 45.0742Z" fill="white"/>
<path d="M79.3945 0.843753C101.085 0.0632794 121.87 8.40536 138.27 22.3672C153.888 37.427 163.865 57.6835 164.291 79.5405C164.373 90.3116 163.292 99.7431 160 110C158.976 106.57 158.835 103.317 158.688 99.75C158.188 92.7895 156.735 87.7346 151.75 82.75C149.306 78.9098 149.897 75.8417 150.039 71.3789C149.848 54.8416 142.009 38.1322 130.75 26.25C117.128 13.3207 99.9382 7.14568 81.375 6.625C62.2789 7.2357 45.1003 15.3164 31.9375 29.0625C18.9979 44.3008 14.6034 61.7097 15.125 81.5C15.195 85.8453 14.4742 89.5952 13.4375 93.8125C10.2777 107.58 12.9516 120.676 20.3125 132.625C20.8449 133.422 21.3773 134.218 21.9258 135.039C22.2803 135.686 22.6348 136.333 23 137C22.67 137.66 22.34 138.32 22 139C4.1465 118.82 -0.446107 96.4028 1 70C2.7731 53.9678 12.1529 37.6957 23 26C25.2969 24.6484 25.2969 24.6484 27 24C27 23.34 27 22.68 27 22C41.2715 9.11934 60.4651 2.07896 79.3945 0.843753Z" fill="#F77D01"/>
<path d="M365 74C367.168 76.6643 368.051 78.1669 367.837 81.6314C367.589 82.5497 367.341 83.468 367.086 84.4141C366.819 85.4221 366.552 86.4302 366.277 87.4688C365.98 88.5103 365.682 89.5519 365.375 90.625C365.1 91.6743 364.826 92.7236 364.543 93.8047C362.039 102.975 362.039 102.975 359 105C355.528 105.484 353.719 105.47 350.758 103.535C350.078 102.861 349.397 102.187 348.695 101.492C347.948 100.752 347.2 100.012 346.43 99.25C345.669 98.4663 344.909 97.6825 344.125 96.875C343.341 96.1145 342.557 95.3539 341.75 94.5703C341.01 93.8227 340.27 93.075 339.508 92.3047C338.834 91.6239 338.16 90.9431 337.465 90.2417C335.53 87.2808 335.516 85.4719 336 82C338.77 78.0465 343.257 77.4981 347.687 76.3125C348.465 76.0876 349.243 75.8626 350.045 75.6309C355.158 74.2279 359.706 73.3289 365 74Z" fill="#F9C501"/>
<path d="M1058 119C1061.2 120.838 1063.44 123.121 1065.44 126.25C1066.39 130.925 1066.33 135.581 1063.99 139.844C1061.44 143.12 1059.06 145.17 1055 146C1050.53 146.057 1047.04 145.59 1043.12 143.375C1040.06 139.949 1038.13 136.638 1037.9 131.945C1038.27 127.167 1039.5 124.224 1043 121C1048.15 118.028 1052.37 117.128 1058 119Z" fill="white"/>
</svg>
