<svg width="1536" height="1536" viewBox="0 0 1536 1536" fill="none" xmlns="http://www.w3.org/2000/svg">
<path d="M1381 682C1394.2 682 1407.4 682 1421 682C1421.06 690.956 1421.06 690.956 1421.11 700.094C1421.14 703.885 1421.17 707.677 1421.21 711.469C1421.26 717.482 1421.31 723.495 1421.35 729.508C1421.37 734.358 1421.41 739.208 1421.46 744.058C1421.48 745.904 1421.49 747.751 1421.5 749.598C1421.51 752.192 1421.54 754.786 1421.57 757.381C1421.57 758.138 1421.56 758.894 1421.56 759.674C1421.67 765.977 1422.76 771.817 1427.44 776.375C1432.2 778.734 1432.2 778.734 1443 780C1443 793.2 1443 806.4 1443 820C1422.71 820 1407.97 819.277 1393.2 805.34C1388.54 800.387 1384 794.009 1384 787C1383.34 787 1382.68 787 1382 787C1381.81 787.804 1381.63 788.609 1381.44 789.438C1376.09 802.683 1363.78 811.778 1351.06 817.25C1336.66 822.588 1321.09 822.278 1307 816C1293.56 809.399 1284.48 799.372 1278 786C1277.6 786.895 1277.2 787.789 1276.79 788.711C1270.33 802.649 1261.98 812.315 1247.29 818.059C1242.24 819.682 1237.29 820.58 1232 821C1231.04 821.079 1231.04 821.079 1230.07 821.16C1215.62 821.788 1201.37 817.496 1190.19 808.312C1180.63 799.185 1174.39 786.151 1173.88 772.855C1173.88 771.676 1173.88 770.497 1173.89 769.282C1173.89 768.628 1173.89 767.974 1173.89 767.299C1173.89 765.151 1173.89 763.003 1173.9 760.855C1173.9 759.36 1173.91 757.865 1173.91 756.37C1173.91 752.446 1173.92 748.522 1173.93 744.598C1173.94 739.884 1173.95 735.17 1173.95 730.456C1173.96 723.304 1173.98 716.152 1174 709C1187.2 709 1200.4 709 1214 709C1214.04 713.334 1214.07 717.668 1214.11 722.133C1214.15 725.598 1214.19 729.063 1214.24 732.528C1214.28 736.18 1214.32 739.833 1214.35 743.485C1214.37 747.006 1214.41 750.527 1214.46 754.048C1214.49 756.038 1214.5 758.029 1214.51 760.02C1214.53 761.241 1214.55 762.461 1214.57 763.719C1214.58 765.325 1214.58 765.325 1214.6 766.963C1215.18 771.349 1216.72 774.739 1219.88 777.852C1223.75 779.947 1227.73 779.485 1232 779C1235.02 778.206 1235.02 778.206 1237 776C1240.49 768.858 1240.47 762.163 1240.51 754.312C1240.54 752.365 1240.54 752.365 1240.57 750.378C1240.61 746.953 1240.64 743.527 1240.67 740.101C1240.7 736.594 1240.75 733.088 1240.79 729.582C1240.88 722.721 1240.94 715.861 1241 709C1253.87 709 1266.74 709 1280 709C1280.33 717.91 1280.66 726.82 1281 736C1282.42 734.02 1283.85 732.04 1285.31 730C1294.1 718.318 1306.55 710.654 1321 708C1337.98 706.289 1353.04 709.36 1366.63 720.07C1372.51 725.094 1375.46 729.196 1380 736C1380.33 718.18 1380.66 700.36 1381 682ZM1316.06 755.312C1313.67 761.366 1313.37 766.216 1315.91 772.172C1318.07 775.795 1321.24 778.118 1325 780C1330.26 780.524 1334.65 780.665 1339.44 778.312C1343.97 774.219 1346.7 771.017 1347.31 764.812C1346.82 758.862 1344.76 754.675 1340.44 750.562C1331.76 744.997 1322.4 747.752 1316.06 755.312Z" fill="white"/>
<path d="M171.395 674.844C193.085 674.063 213.87 682.405 230.27 696.367C245.874 711.413 255.848 731.649 256.293 753.486C256.461 777.814 249.119 798.369 232.125 816.25C215.018 832.528 193.161 839.544 169.953 839.207C148.269 838.529 128.236 828.387 113.348 812.797C106.422 804.546 100.762 795.097 97 785C96.6081 783.976 96.2163 782.953 95.8125 781.898C89.0337 761.044 91.8406 738.15 101.646 718.868C111.311 700.927 111.311 700.927 119 698C119 697.34 119 696.68 119 696C133.272 683.119 152.465 676.079 171.395 674.844Z" fill="#FCCB01"/>
<path d="M592 717C594.958 719.789 597.67 722.662 600 726C600 726.66 600 727.32 600 728C600.722 727.278 601.444 726.556 602.188 725.813C603.116 724.884 604.044 723.956 605 723C605.743 722.196 606.485 721.391 607.25 720.563C617.51 711.002 628.863 707.618 642.719 707.789C654.765 708.563 665.962 712.35 674.375 721.25C684.913 734.184 685.315 748.41 685.266 764.414C685.267 765.962 685.269 767.509 685.271 769.056C685.274 772.272 685.27 775.487 685.261 778.703C685.249 782.827 685.256 786.952 685.268 791.077C685.275 794.26 685.273 797.442 685.268 800.625C685.266 802.147 685.268 803.669 685.273 805.192C685.278 807.307 685.27 809.422 685.259 811.538C685.257 812.741 685.256 813.943 685.254 815.183C685 818 685 818 683 820C680.291 820.199 677.707 820.278 675 820.25C673.894 820.262 673.894 820.262 672.766 820.273C667.253 820.253 667.253 820.253 665 818C664.742 815.163 664.742 815.163 664.729 811.49C664.724 810.821 664.718 810.153 664.713 809.464C664.703 808.009 664.697 806.555 664.695 805.1C664.691 802.791 664.675 800.482 664.654 798.174C664.599 791.608 664.568 785.042 664.544 778.476C664.528 774.46 664.497 770.445 664.459 766.429C664.447 764.904 664.441 763.379 664.441 761.854C664.44 751.324 664.397 741.549 656.781 733.504C650.235 727.977 642.347 726.911 634 727C624.922 727.799 618.25 732.123 612.324 738.863C607.184 747.157 607.527 755.661 607.488 765.094C607.471 766.652 607.453 768.21 607.434 769.768C607.387 773.845 607.357 777.922 607.33 781.999C607.301 786.168 607.254 790.338 607.209 794.508C607.123 802.672 607.056 810.836 607 819C603.826 820.587 600.418 820.143 596.938 820.125C596.192 820.129 595.446 820.133 594.678 820.137C589.127 820.127 589.127 820.127 588 819C587.887 817.1 587.843 815.197 587.826 813.294C587.813 812.071 587.799 810.849 587.786 809.589C587.78 808.931 587.775 808.272 587.77 807.594C587.754 805.528 587.731 803.462 587.705 801.396C587.635 795.52 587.575 789.643 587.523 783.767C587.491 780.173 587.45 776.58 587.403 772.987C587.38 770.971 587.366 768.955 587.353 766.939C587.178 748.531 587.178 748.531 578.188 733.188C570.388 727.835 562.513 726.108 553.063 727.402C544.308 729.457 538.149 733.76 533.008 741.094C530.417 745.994 529.746 750.487 529.713 755.983C529.703 756.989 529.703 756.989 529.692 758.016C529.679 759.461 529.67 760.906 529.664 762.352C529.656 764.638 529.636 766.924 529.612 769.21C529.556 774.882 529.52 780.554 529.484 786.227C529.453 791.032 529.414 795.838 529.364 800.643C529.344 802.898 529.336 805.152 529.328 807.407C529.315 808.783 529.301 810.159 529.287 811.534C529.28 812.737 529.273 813.941 529.265 815.18C529 818 529 818 527 820C524.273 820.172 521.661 820.232 518.938 820.188C518.192 820.187 517.446 820.186 516.678 820.186C511.14 820.14 511.14 820.14 510 819C509.902 817.598 509.874 816.192 509.873 814.786C509.87 813.878 509.867 812.969 509.864 812.033C509.867 811.028 509.869 810.023 509.871 808.988C509.869 807.936 509.867 806.884 509.865 805.801C509.861 802.305 509.864 798.809 509.867 795.312C509.867 792.895 509.866 790.477 509.864 788.06C509.863 782.986 509.865 777.911 509.87 772.837C509.875 766.316 509.872 759.795 509.866 753.275C509.862 748.28 509.864 743.286 509.866 738.292C509.867 735.887 509.866 733.481 509.864 731.076C509.861 727.721 509.865 724.367 509.871 721.012C509.869 720.007 509.867 719.002 509.864 717.967C509.869 716.604 509.869 716.604 509.873 715.214C509.873 714.419 509.874 713.625 509.874 712.807C510 711 510 711 511 710C513.677 709.9 516.323 709.861 519 709.875C519.75 709.871 520.5 709.867 521.273 709.863C526.873 709.873 526.873 709.873 528 711C528.233 712.682 528.413 714.371 528.563 716.063C528.688 717.441 528.688 717.441 528.816 718.848C528.877 719.558 528.938 720.268 529 721C529.692 720.437 529.692 720.437 530.398 719.863C548.441 705.707 572.669 703.055 592 717Z" fill="#FFF"/>
<path d="M790 718C791.168 718.88 791.168 718.88 792.359 719.777C804.017 729.342 809.974 742.616 811.746 757.355C812.944 774.555 808.242 789.433 797.313 802.687C787.733 812.976 774.646 818.385 760.707 819.121C748.275 819.449 737.187 816.284 727.184 808.852C726.208 808.13 725.233 807.409 724.228 806.666C723.493 806.117 722.758 805.567 722 805C722.002 805.687 722.004 806.374 722.007 807.081C722.029 814.202 722.044 821.323 722.055 828.444C722.06 831.104 722.067 833.765 722.075 836.426C722.088 840.241 722.093 844.056 722.098 847.871C722.103 849.069 722.108 850.267 722.113 851.501C722.113 853.153 722.113 853.153 722.114 854.838C722.116 855.812 722.118 856.787 722.12 857.792C722 860 722 860 721 861C718.157 861.1 715.343 861.139 712.5 861.125C711.702 861.129 710.904 861.133 710.082 861.137C704.127 861.127 704.127 861.127 703 860C702.901 858.079 702.874 856.154 702.873 854.23C702.87 852.976 702.867 851.723 702.865 850.431C702.866 849.029 702.868 847.627 702.871 846.225C702.869 844.758 702.868 843.292 702.865 841.825C702.861 837.831 702.863 833.838 702.866 829.844C702.868 825.674 702.866 821.504 702.864 817.333C702.863 810.329 702.865 803.324 702.87 796.32C702.875 788.21 702.873 780.1 702.868 771.99C702.863 765.04 702.863 758.09 702.865 751.139C702.867 746.983 702.867 742.826 702.864 738.669C702.861 734.762 702.863 730.856 702.869 726.949C702.87 725.511 702.87 724.073 702.867 722.635C702.865 720.68 702.869 718.725 702.873 716.77C702.873 715.674 702.874 714.577 702.874 713.447C703 711 703 711 704 710C706.843 709.9 709.657 709.861 712.5 709.875C713.298 709.871 714.096 709.867 714.918 709.863C720.873 709.873 720.873 709.873 722 711C722.072 712.853 722.084 714.708 722.063 716.562C722.054 717.574 722.044 718.586 722.035 719.629C722.024 720.411 722.012 721.194 722 722C723.035 721.203 723.035 721.203 724.09 720.391C743.556 705.758 769.641 702.66 790 718ZM728.223 739.102C721.166 748.867 719.914 759.151 721 771C723.022 781.207 727.819 789.221 736.25 795.375C744.806 800.614 754.36 802.391 764.133 800.344C773.862 797.725 780.868 793.764 786.375 785.187C792.115 774.601 793.984 763.486 790.813 751.687C787.788 742.994 782.449 735.069 774.316 730.488C769.646 728.276 765.206 726.347 760 726C758.824 725.897 757.649 725.794 756.438 725.687C745.305 725.901 735.351 730.673 728.223 739.102Z" fill="white"/>
<path d="M241.812 753.188C248.721 758.711 250.583 765.095 251.738 773.656C252.342 781.376 252.154 786.009 248.5 792.813C247.959 793.852 247.959 793.852 247.406 794.912C237.115 814.19 221.213 828.486 200.203 835.293C177.611 841.894 154.847 840.289 134 829C122.367 822.13 114.909 815.169 109 803C108.606 802.194 108.211 801.389 107.805 800.559C102.103 787.74 101.578 773.697 106.379 760.582C106.584 760.06 106.789 759.538 107 759C108.959 762.537 110.018 766.202 111.188 770.063C116.513 786.596 127.849 799.437 143.066 807.656C154.876 813.454 165.89 815.579 179 815C178.711 814.345 178.423 813.69 178.125 813.016C173.283 801.112 174.085 790.813 179 779C186.155 764.842 198.056 754.164 213.125 749.063C223.003 746.522 233.127 747.623 241.812 753.188Z" fill="#FC0223"/>
<path d="M208.746 731.871C213.099 735.138 213.099 735.138 215 737C215 737.66 215 738.32 215 739C215.577 739.227 216.155 739.454 216.75 739.687C219.597 741.348 221.121 743.315 223 746C223 746.66 223 747.32 223 748C222.056 748.208 221.113 748.415 220.141 748.629C204.312 752.332 192.505 759.668 183.188 773.25C177.538 782.67 174.517 793.005 176 804C177.089 808.107 178.432 812.052 180 816C161.457 817.043 144.31 812.223 130.042 800.02C118.879 789.925 109.056 775.438 107.75 760.055C108.041 756.499 109.032 754.45 110.812 751.375C111.596 749.994 111.596 749.994 112.395 748.586C113.833 746.27 115.226 744.071 117 742C117.66 742 118.32 742 119 742C119.66 740.68 120.32 739.36 121 738C121.66 738 122.32 738 123 738C123.33 737.01 123.66 736.02 124 735C127.474 732.368 131.248 730.211 135 728C135.665 727.603 136.33 727.206 137.016 726.797C159.478 714.491 188.004 717.738 208.746 731.871Z" fill="#FC8001"/>
<path d="M905 719C905.144 717.701 905.289 716.401 905.438 715.062C905.875 711.125 905.875 711.125 907 710C909.843 709.9 912.657 709.861 915.5 709.875C916.697 709.869 916.697 709.869 917.918 709.863C923.873 709.873 923.873 709.873 925 711C925.095 712.404 925.122 713.813 925.12 715.22C925.122 716.585 925.122 716.585 925.124 717.978C925.119 719.488 925.119 719.488 925.114 721.028C925.114 722.081 925.114 723.135 925.114 724.22C925.113 727.721 925.105 731.222 925.098 734.723C925.096 737.143 925.094 739.563 925.093 741.982C925.09 748.366 925.08 754.75 925.069 761.133C925.058 767.642 925.054 774.15 925.049 780.658C925.038 793.439 925.021 806.219 925 819C918.73 819 912.46 819 906 819C905.991 817.023 905.981 815.045 905.972 813.008C905.936 806.442 905.882 799.877 905.816 793.311C905.777 789.334 905.745 785.357 905.729 781.38C905.714 777.535 905.679 773.69 905.632 769.845C905.617 768.385 905.609 766.925 905.608 765.465C905.596 755.195 904.937 746.174 897.875 738.187C888.71 729.867 877.574 727.499 865.543 727.68C854.938 728.638 846.407 733.669 839.609 741.715C834.246 749.331 832.04 758.791 833 768C835.34 778.924 839.428 787.18 848.66 793.684C855.371 797.459 862.442 798.92 870 800C870 806.27 870 812.54 870 819C864.745 821.627 856.105 818.652 850.758 816.996C835.727 811.081 825.186 801.419 818.477 786.687C812.346 771.378 812.393 755.673 818.441 740.348C824.448 727.513 833.355 716.933 846.688 711.496C867.35 704.04 886.698 706.798 905 719Z" fill="#FFF"/>
<path d="M1022 719C1022.5 719.99 1022.5 719.99 1023 721C1021.92 723.283 1020.8 725.436 1019.56 727.625C1019.22 728.236 1018.89 728.847 1018.54 729.477C1017.7 730.988 1016.85 732.495 1016 734C1012.01 733.343 1008.55 732.097 1004.81 730.563C992.65 725.84 979.766 723.682 967.098 728.008C963.351 729.78 960.841 732.319 959 736C958.642 740.362 958.441 742.907 960.438 746.813C967.774 753.076 978.972 753.174 988.143 754.373C1001.24 756.218 1011.3 759.445 1020.81 768.75C1024.89 774.805 1026.78 781.703 1026 789C1024.19 798.145 1020.42 804.831 1012.75 810.25C996.366 820.299 977.448 820.677 959 817C950.491 814.818 939.062 811.594 934 804C936.64 799.71 939.28 795.42 942 791C945.429 792.372 948.269 793.675 951.438 795.438C963.745 801.591 979.635 803.331 993 799.762C997.319 798.117 1001.72 796.069 1004.21 792.055C1005.63 788.379 1005.61 784.596 1004.21 780.916C1001.78 777.06 997.194 775.577 992.918 774.453C990.783 774.047 988.653 773.727 986.5 773.438C984.916 773.196 983.333 772.954 981.75 772.711C980.959 772.593 980.167 772.476 979.352 772.355C951.473 768.152 951.473 768.152 942 757C937.253 749.4 937.047 741.257 938.367 732.59C940.351 724.885 945.934 718.958 952.25 714.363C972.05 703.226 1003.79 706.008 1022 719Z" fill="white"/>
<path d="M1112.44 717.812C1113.28 718.534 1114.13 719.256 1115 720C1113.24 724.972 1110.61 729.434 1108 734C1104.01 733.343 1100.55 732.097 1096.81 730.562C1084.65 725.839 1071.77 723.682 1059.1 728.008C1055.35 729.78 1052.84 732.319 1051 736C1050.37 741.816 1050.37 741.816 1053 746.812C1061 752.649 1070.55 753.13 1080.09 754.373C1092.86 756.164 1103.89 759.161 1112.81 768.875C1117.5 775.578 1118.91 781.853 1118 790C1116.16 799.225 1110.91 806.347 1103.25 811.687C1087.79 820.704 1068.03 820.58 1051 817C1042.26 814.52 1034.54 811.057 1027 806C1027.58 801.938 1028.89 799.152 1031.06 795.687C1031.88 794.363 1031.88 794.363 1032.72 793.012C1033.35 792.016 1033.35 792.016 1034 791C1037.82 792.467 1041.45 794.195 1045.12 796C1058.41 802.105 1073.35 802.986 1087.46 798.992C1091.65 797.356 1094.94 795.124 1097 791C1097.64 786.342 1097.73 783.054 1095 779.125C1088.17 774.285 1081.11 773.455 1073 772.625C1057.84 770.83 1043.69 768.46 1033.56 756C1029.44 748.079 1028.62 739.787 1031.25 731.25C1034.7 722.164 1040.54 716.513 1049.12 712.25C1067.47 704.425 1095.83 706.047 1112.44 717.812Z" fill="white"/>
<path d="M371 718C373.208 719.904 375.071 721.803 377 724C375.464 727.681 373.218 729.988 370.375 732.75C369.558 733.549 368.74 734.348 367.898 735.172C367.272 735.775 366.645 736.378 366 737C363.29 735.705 360.852 734.254 358.375 732.562C350.056 727.356 341.104 725.686 331.465 727.469C321.071 730.167 313.268 736.378 307 745C302.12 753.8 300.276 763.094 302.754 773.02C306.269 783.095 311.977 791.028 321.41 796.363C330.752 800.652 339.633 801.245 349.441 798.062C353.139 796.527 356.43 794.494 359.773 792.305C361.979 791.012 363.476 790.321 366 790C368.29 791.919 370.233 793.763 372.25 795.938C372.804 796.514 373.359 797.091 373.93 797.686C375.298 799.113 376.651 800.555 378 802C375.947 808.159 368.526 811.69 362.988 814.562C347.743 821.258 332.942 821.628 317.371 815.594C301.26 808.095 290.129 795.614 284 779C279.45 764.07 281.847 748.638 289.086 735.016C297.704 721.438 310.317 711.888 326 708C342.044 704.956 357.763 708.413 371 718Z" fill="white"/>
<path d="M476.723 719.074C489.479 730.099 496.798 743.042 498.254 759.949C498.827 774.974 494.565 788.722 484.75 800.125C473.706 811.841 460.578 818.479 444.25 819.105C442 819 442 819 441 818C440.927 815.303 440.908 812.633 440.937 809.938C440.942 809.179 440.947 808.42 440.951 807.639C440.963 805.759 440.981 803.88 441 802C444.091 800.687 446.943 799.745 450.25 799.188C461.049 796.884 467.588 790.3 473.668 781.477C478.394 772.69 478.287 761.38 476.348 751.766C473.68 743.659 469.121 736.538 461.687 732.125C449.854 726.329 439.653 725.451 427.117 729.684C418.43 733.352 412.66 739.333 409 748C407.332 753.268 406.19 758.599 405 764C398.73 764 392.46 764 386 764C385.391 749.986 389.641 737.027 398.75 726.188C418.843 705.143 453.203 701.156 476.723 719.074Z" fill="white"/>
<path d="M171.395 674.844C193.085 674.063 213.87 682.405 230.27 696.367C245.888 711.427 255.865 731.683 256.291 753.541C256.373 764.312 255.292 773.743 252 784C250.976 780.57 250.835 777.317 250.688 773.75C250.188 766.79 248.735 761.735 243.75 756.75C241.306 752.91 241.897 749.842 242.039 745.379C241.848 728.842 234.009 712.132 222.75 700.25C209.128 687.321 191.938 681.146 173.375 680.625C154.279 681.236 137.1 689.316 123.938 703.063C110.998 718.301 106.603 735.71 107.125 755.5C107.195 759.845 106.474 763.595 105.438 767.812C102.278 781.58 104.952 794.676 112.312 806.625C112.845 807.422 113.377 808.218 113.926 809.039C114.28 809.686 114.635 810.333 115 811C114.67 811.66 114.34 812.32 114 813C96.1465 792.82 91.5539 770.403 93 744C94.7731 727.968 104.153 711.696 115 700C117.297 698.648 117.297 698.648 119 698C119 697.34 119 696.68 119 696C133.272 683.119 152.465 676.079 171.395 674.844Z" fill="#F77D01"/>
<path d="M457 748C459.168 750.664 460.051 752.167 459.837 755.631C459.589 756.55 459.341 757.468 459.086 758.414C458.819 759.422 458.552 760.43 458.277 761.469C457.98 762.51 457.682 763.552 457.375 764.625C457.1 765.674 456.826 766.724 456.543 767.805C454.039 776.975 454.039 776.975 451 779C447.528 779.484 445.719 779.47 442.758 777.535C442.078 776.861 441.397 776.187 440.695 775.492C439.948 774.752 439.2 774.012 438.43 773.25C437.669 772.466 436.909 771.683 436.125 770.875C435.341 770.114 434.557 769.354 433.75 768.57C433.01 767.823 432.27 767.075 431.508 766.305C430.834 765.624 430.16 764.943 429.465 764.242C427.53 761.281 427.516 759.472 428 756C430.77 752.046 435.257 751.498 439.687 750.313C440.465 750.088 441.243 749.863 442.045 749.631C447.158 748.228 451.706 747.329 457 748Z" fill="#F9C501"/>
<path d="M1150 793C1153.2 794.838 1155.44 797.121 1157.44 800.25C1158.39 804.925 1158.33 809.581 1155.99 813.844C1153.44 817.12 1151.06 819.17 1147 820C1142.53 820.057 1139.04 819.59 1135.12 817.375C1132.06 813.949 1130.13 810.638 1129.9 805.945C1130.27 801.167 1131.5 798.224 1135 795C1140.15 792.028 1144.37 791.128 1150 793Z" fill="#FFF"/>
</svg>
